Patient4_TMGait_0pt4_02_right_34_EMG.mot
version=1
nRows=26
nColumns=33
inDegrees=no
endheader
time	1LAddLong	2LGlutMax	3LGlutMed	4LIliopsoas	5LSemiMemb	6LBicFemLong	7LRecFem	8LVastMed	9LVastLat	10LGasMed	11LTibAnt	12lTibPost	13LPeroneusLong	14LSol	15LExtDigLong	16LFlexDigLong	17RAddLong	18RGlutMax	19RGlutMed	20RIliopsoas	21RSemiMemb	22RBicFemLong	23RRecFem	24RVastMed	25RVastLat	26RGasMed	27RTibAnt	28RTibPost	29RPeroneusLong	30RSol	31RExtDigLong	32RFlexDigLong
45.745	-0.01358	0.10544	0.001526	-0.008392	0.054321	-0.012054	0.030975	-0.007629	-0.20371	0.003967	-0.050812	0.021515	-0.003967	0.061951	0.000916	-0.008087	-0.011597	-0.07309	0.23331	0.027161	0.033264	-0.16769	-0.13168	-0.014801	0.032959	0.007324	0.014343	-0.021057	-0.06012	0.46661	0.002899	-0.012817
45.746	-0.031128	0.13809	-0.008392	-0.015411	-0.028076	-0.032501	-0.054932	0	-0.13534	0.006409	0.024567	0.016327	-0.016785	0.066833	-0.002899	0.000916	-0.01236	-0.050659	0.14114	-0.013733	0.11993	-0.34836	-0.1622	0.060272	0.041046	-0.044861	0.043335	-0.011749	0.048981	0.53635	0.006866	-0.009155
45.747	-0.053253	0.11765	0.005951	-0.008545	-0.12665	-0.057983	-0.083313	0.010376	-0.072021	0.000763	0.022125	0.018005	-0.011902	0.0737	-0.010376	0.001526	0.003662	-0.12955	0.074005	-0.011139	0.021515	-0.26916	-0.14008	-0.034943	0.025635	-0.11047	0.058289	-0.014191	0.14969	0.34622	-0.001678	-0.013123
45.748	-0.061798	0.13077	0.002136	0.002289	-0.15671	-0.086975	-0.043945	0.015411	0.01709	0.006409	0.000305	0.009003	0.006714	0.06958	0.001831	-0.003967	-0.002289	-0.076599	0.025482	-0.001221	-0.09079	-0.17029	-0.17258	-0.012665	0.020905	-0.072784	0.042267	-0.007629	0.224	0.019073	0.000916	-0.000916
45.749	-0.042419	0.19211	-0.030518	0.013733	-0.10223	-0.079041	-0.055389	0.011597	0.050964	0.001068	-0.012207	0.010071	0.01358	0.063629	-0.000458	-0.007324	0.008392	-0.026093	-0.16159	-0.028534	-0.012207	-0.09201	-0.1442	-0.038147	0.023041	-0.10956	0.018158	-0.009613	-0.15762	-0.29526	-0.002899	0.002289
45.75	-0.024719	0.23758	-0.059509	0.012512	-0.073853	-0.049286	-0.1561	-0.007782	0.056458	0.016785	-0.006409	0.014191	0.015259	0.076599	0.002136	-0.002747	0.042877	0.031586	0.088806	-0.081024	0.051575	-0.085907	-0.19241	-0.040588	0.037842	-0.14038	0.016785	-0.10101	-0.11581	-0.36957	0.000305	-0.000458
45.751	0.006104	0.19669	-0.076141	0.007324	-0.005798	-0.010071	-0.21133	0.005188	0.075684	0.018921	-0.001678	0.013275	-0.001678	0.073853	-0.003052	-0.008545	0.042419	-0.010834	0.34973	-0.024567	0.10452	-0.069275	-0.18478	-0.025635	0.030823	-0.083923	-0.020599	-0.13702	0.36819	-0.29938	-0.000153	-0.002899
45.752	0.014038	0.19653	-0.12299	0.014954	0.004883	-0.024719	-0.11108	-0.006561	0.12253	-0.00351	-0.002289	0.020905	-0.02533	0.076752	-0.009155	0.015411	0.042572	-0.1152	0.42236	-0.067749	0.15015	-0.096741	-0.19821	-0.022888	0.032501	0.0354	-0.005341	0.016632	0.45959	-0.2446	-0.002136	-0.01358
45.753	0.011292	0.18143	-0.13901	0.006256	0.040588	-0.028992	-0.099182	-0.013123	0.11383	-0.023804	0.002136	0.022888	0.014801	0.069275	-0.013275	0.007782	0.016785	-0.053558	0.20737	-0.069885	0.016022	-0.07019	-0.23575	-0.037689	0.007935	-0.06546	0.030212	-0.000458	0.021057	-0.19547	-0.001678	-0.008392
45.754	0.012054	0.19196	-0.020752	0.016632	0.043793	-0.03479	-0.074158	0	0.10162	-0.02182	0.001068	0.015259	0.06073	0.083771	-0.00473	0.011749	0.001526	-0.063934	0.17593	-0.082703	-0.095825	0.015564	-0.20233	-0.04303	0.023193	-0.019684	0.016022	-0.37918	-0.85663	-0.31982	-0.001373	-0.027008
45.755	0.021057	0.19638	0.084991	0.008087	0.19867	-0.020905	-0.043945	-0.006409	0.05188	-0.024719	0.001678	0.014496	0.034332	0.069733	-0.001831	-0.004272	0.013123	-0.071411	0.067139	-0.046692	0.056305	-0.024109	-0.18829	-0.036316	0.007935	-0.031433	-0.029755	0.1088	-0.52246	0.086212	-0.003357	-0.019684
45.756	0.040741	0.22797	0.16678	0	0.16922	0.021362	-0.066528	-0.004883	0.054474	-0.024567	0.000916	0.016174	-0.007782	0.068665	0.002594	-0.006561	-0.037384	-0.10071	0.009918	-0.020599	0.004883	0.011597	-0.26001	0.065765	0.035248	0.010376	0.015869	0.02655	-0.25559	-0.007019	-0.003357	-0.020142
45.757	0.048676	0.15198	0.12955	-0.005493	0.045471	0.052185	-0.11505	-0.008087	0.14267	-0.015259	0.00824	0.016785	-0.049133	0.080566	0.000458	-0.00473	-0.052185	-0.070648	0.13443	0.049896	-0.10742	0.039368	-0.26871	0.036011	0.039215	0.024567	0.018768	0.2179	-0.14984	-0.57938	0.003052	-0.025635
45.758	0.055695	0.12634	0.083466	0.017395	-0.00412	0.12528	-0.09201	-0.003357	0.14633	-0.004272	0.002594	0.009918	-0.022278	0.076599	-0.005646	-0.014191	-0.010071	-0.079498	0.11475	0.07309	-0.042725	0.018768	-0.27344	0.005798	0.026093	0.10056	-0.10895	0.11124	0.65216	-0.77805	0.000305	-0.023804
45.759	0.052338	0.121	0.068359	0.01358	0.030212	0.1532	-0.082855	-0.006561	0.15533	0.007019	0.005341	0.016327	0.015717	0.093231	-0.000305	0.010834	-0.019226	-0.024261	0.045471	-0.020142	0.022888	0.12955	-0.21988	0.036011	0.016022	0.10086	-0.10864	0.000763	0.47562	0.071564	0.000305	-0.018921
45.76	0.041962	0.098267	0.072784	0.008698	0.037079	0.090485	-0.10071	-0.003052	0.19287	0.026398	0.00824	0.016479	-0.056	0.1033	0.003967	-0.019073	0.001831	-0.006561	-0.016937	0.001526	0.001526	0.2298	-0.20783	0.029907	0.026855	0.066833	-0.023651	-0.028534	-0.49942	0.28381	-0.001678	-0.013885
45.761	0.027618	0.10162	0.07782	0.003204	0.018463	0.19684	-0.17639	-0.001526	0.16785	0.011292	0.006561	0.006561	-0.085144	0.13016	0.002594	-0.010223	-0.001678	-0.024567	-0.030365	0.11322	-0.045776	0.14893	-0.22629	0.070496	0.013885	0.043488	-0.011902	0.043793	-1.0381	0.034485	-0.003967	-0.016479
45.762	0.015564	0.12314	0.041199	-0.000305	0.009308	0.24506	-0.21057	0.009308	0.11032	0.003204	-0.009308	0.015564	-0.018311	0.13275	-0.005188	-0.00351	-0.016022	-0.062561	0.002441	0.20233	-0.037079	0.15381	-0.25345	0.10513	0.020752	-0.001526	0.006256	-0.29251	-0.69138	-0.35385	-0.001831	-0.015106
45.763	-0.013733	0.14542	0.017242	0.01297	0.037689	0.2359	-0.10513	0.00824	0.003204	-0.011902	0.003815	0.019073	0.093536	0.1178	-0.002747	-0.004578	-0.010223	-0.062256	-0.096436	0.14114	-0.016479	0.082092	-0.22049	0.047607	-0.010986	-0.055847	0.009766	0.045319	0.046692	-0.005188	-0.000305	-0.012512
45.764	-0.038147	0.10117	-0.007172	0.007477	0.018158	0.22232	0.009003	-0.007477	-0.16159	0.021362	0.021362	0.012665	0.15595	0.052032	-0.005798	0.003815	0.000305	-0.045929	0.19241	0.001678	-0.012207	0.036774	-0.2359	-0.009155	-0.016327	-0.092468	-0.032349	0.3978	0.88455	0.38727	0.00061	-0.016327
45.765	-0.042419	0.12589	-0.015106	0.007935	-0.074768	0.18066	0.040894	-0.007782	-0.26489	0.034027	-0.008087	0.018158	0.11749	-0.024719	-0.004272	-0.012665	0.002289	-0.048828	0.11337	-0.050201	-0.015411	0.05127	-0.23422	0.005341	-0.006714	-0.1207	-0.022125	0.075836	0.1355	0.2298	-0.000305	-0.002747
45.766	-0.042725	0.103	-0.013428	0.021973	-0.15213	0.15121	0	-0.004272	-0.19455	0.067291	-0.002441	0.019073	-0.070648	-0.012512	0.001526	-0.013275	-0.00061	-0.07309	0.048523	-0.016022	0.014954	0.04837	-0.23331	0.024109	0.009918	-0.11292	-0.033417	-0.008545	0.15182	-0.002289	-0.003052	-0.00946
45.767	-0.015869	0.11108	0.006866	0.022583	-0.12238	-0.008698	0.020905	-0.006714	-0.06424	0.078735	0.005341	0.022888	-0.071411	0.053101	-0.007935	-0.008698	0.010834	-0.019379	-0.012054	-0.007172	0.044556	-0.001221	-0.22385	-0.049591	0.011292	-0.067291	-0.071564	-0.031433	0.56824	-0.22995	0.001831	-0.003815
45.768	0.014191	0.15823	0.012817	0.015564	-0.053558	-0.11093	0.019379	-0.019989	-0.008545	0.060577	0.011292	0.021515	0.066223	0.094757	-0.004272	0.025177	-0.000305	-0.027161	-0.020142	0.030212	0.004425	0.001526	-0.2562	-0.027618	0.023041	-0.020447	-0.072327	-0.066681	0.6752	-0.35629	-0.000305	-0.007019
45.769	0.041046	0.13992	-0.003204	0.019073	0.060883	-0.40009	0.062256	-0.022888	-0.084534	0.035248	0.002441	0.019684	0.059357	0.084076	0.006409	-0.017853	0.002747	0.001526	0.010529	0.072174	-0.2243	0.055695	-0.271	-0.039978	0.018005	-0.045013	-0.004578	-0.11551	0.31067	-0.5513	-0.003052	-0.018616
45.77	0.065918	0.14191	-0.00473	0.00946	0.089264	-0.34958	-0.019836	-0.02594	0.078735	0.021667	0.00412	0.020142	0.08316	0.006256	0.002441	-0.015106	0.006256	0.006866	-0.04364	0.035553	-0.10727	0.055542	-0.23819	-0.073395	0.012817	0.077209	0.027924	-0.12222	0.020294	-0.58212	-0.003357	-0.023499
